<svg width="55" height="54" viewBox="0 0 55 54" fill="none" xmlns="http://www.w3.org/2000/svg">
<g clip-path="url(#clip0_33_23)">
<path d="M53.5253 17.4566H25.7464L35.9566 6.00926C36.2514 5.42561 35.9559 4.95224 35.2971 4.95224H20.2569C18.751 4.95254 16.772 7.9557 15.7891 9.04401C14.06 10.9582 1.03771 25.2933 0.943211 25.4802C0.648487 26.0639 0.648487 27.0105 0.943211 27.5942L18.53 47.4592C18.8247 48.0428 19.5979 48.5162 20.2569 48.5162H35.2972C35.9562 48.5162 36.2516 48.0428 35.9568 47.4592L26.0512 36.0995H53.5253C54.1506 36.0995 54.6573 35.5976 54.6573 34.9784V18.5777C54.6573 17.9585 54.1506 17.4566 53.5253 17.4566Z" fill="#F7F9F9"/>
</g>
<defs>
<clipPath id="clip0_33_23">
<rect width="53.9352" height="53.4132" fill="white" transform="translate(0.722168 0.0275574)"/>
</clipPath>
</defs>
</svg>
