<svg viewBox="0 0 1165 672" fill="none" xmlns="http://www.w3.org/2000/svg">
<g clip-path="url(#clip0_35_4)">
<path d="M425.872 382.025C523.099 382.025 601.917 303.173 601.917 205.905C601.917 108.637 523.099 29.785 425.872 29.785C328.646 29.785 249.828 108.637 249.828 205.905C249.828 303.173 328.646 382.025 425.872 382.025Z" fill="#368F8B"/>
<path d="M1162.41 256.41C1211.02 256.41 1250.43 216.984 1250.43 168.35C1250.43 119.716 1211.02 80.29 1162.41 80.29C1113.8 80.29 1074.39 119.716 1074.39 168.35C1074.39 216.984 1113.8 256.41 1162.41 256.41Z" fill="#368F8B"/>
<path d="M749.483 470.085C798.812 470.085 838.8 430.079 838.8 380.73C838.8 331.381 798.812 291.375 749.483 291.375C700.155 291.375 660.167 331.381 660.167 380.73C660.167 430.079 700.155 470.085 749.483 470.085Z" fill="#368F8B"/>
<path d="M81.55 735.56C161.619 735.56 226.528 670.623 226.528 590.52C226.528 510.417 161.619 445.48 81.55 445.48C1.48103 445.48 -63.4277 510.417 -63.4277 590.52C-63.4277 670.623 1.48103 735.56 81.55 735.56Z" fill="#368F8B"/>
<path d="M1146.88 861.175C1238.39 861.175 1312.57 786.962 1312.57 695.415C1312.57 603.868 1238.39 529.655 1146.88 529.655C1055.37 529.655 981.189 603.868 981.189 695.415C981.189 786.962 1055.37 861.175 1146.88 861.175Z" fill="#368F8B"/>
</g>
<defs>
</defs>
</svg>
