<svg viewBox="0 0 285 245" fill="none" xmlns="http://www.w3.org/2000/svg">
<g clip-path="url(#clip0_10_164)">
<path d="M155.263 68.2299C169.729 68.2299 181.455 56.5266 181.455 42.0898C181.455 27.6531 169.729 15.9497 155.263 15.9497C140.798 15.9497 129.072 27.6531 129.072 42.0898C129.072 56.5266 140.798 68.2299 155.263 68.2299Z" fill="#A0616A"/>
<path d="M135.715 55.1599C135.715 55.1599 140.649 92.2864 133.057 96.4536C125.466 100.621 178.228 101 178.228 101C178.228 101 166.461 68.7982 171.775 58.9483L135.715 55.1599Z" fill="#A0616A"/>
<path d="M216.756 101.188L212.368 121.13L203.09 163.321L202.812 165.631L199.61 192.381L197.48 210.151L196.052 222.087C187.368 226.542 181.075 229.616 181.075 229.616C181.075 229.616 180.533 226.908 179.661 223.442C173.567 225.265 162.29 228.29 152.734 228.895C156.214 232.766 157.813 236.402 155.644 239.086C149.098 247.177 122.071 230.228 112.618 223.907C112.398 225.421 112.315 226.951 112.369 228.479L105.135 222.926L105.851 210.151L107.058 188.534L108.576 161.426C108.097 160.265 107.696 159.074 107.375 157.861C105.16 149.998 102.471 134.296 100.409 121.13C98.749 110.533 97.5024 101.579 97.2388 99.6732C97.2032 99.4244 97.1854 99.2964 97.1854 99.2964L137.23 81.6365C140.076 88.2234 153.364 90.2034 153.364 90.2034C164.374 89.4462 173.004 83.652 173.004 83.652L216.756 101.188Z" fill="#D0CDE1"/>
<path d="M184.113 222.041C184.113 222.041 182.417 222.621 179.661 223.442C173.567 225.265 162.29 228.29 152.734 228.895C144.506 229.421 137.554 228.155 136.282 222.798C135.737 220.495 136.51 218.6 138.195 217.043C143.224 212.39 156.36 210.723 166.778 210.151C169.72 209.991 172.441 209.916 174.706 209.888C178.553 209.838 181.075 209.916 181.075 209.916L181.135 210.151L184.113 222.041Z" fill="#A0616A"/>
<path d="M133.474 17.3637L128.577 15.407C128.577 15.407 138.817 4.156 153.063 5.13439L149.056 0.731783C149.056 0.731783 158.851 -3.18157 167.755 7.09104C172.435 12.4911 177.851 18.8386 181.227 25.989H186.471L184.282 30.7992L191.943 35.6094L184.08 34.7454C184.549 37.3795 184.621 40.0687 184.294 42.724C183.956 45.3801 182.598 47.8015 180.506 49.4772C180.506 49.4772 174.432 36.9306 174.432 34.9739V39.8656C174.432 39.8656 169.535 35.4631 169.535 32.5281L166.864 35.9523L165.529 30.5713L149.056 35.9523L151.727 31.5497L141.488 33.0173L145.495 27.6363C145.495 27.6363 133.92 33.9956 133.474 39.3765C133.029 44.7574 129.641 49.8561 129.641 49.8561C129.641 49.8561 120.564 24.7013 133.474 17.3637Z" fill="#2F2E41"/>
<path d="M245.225 192.868C242.557 195.754 235.947 200.101 227.933 204.808C224.952 206.557 221.778 208.359 218.541 210.151C210.815 214.427 202.726 218.664 196.052 222.087C187.368 226.541 181.075 229.616 181.075 229.616C181.075 229.616 180.533 226.908 179.661 223.442C178.492 218.803 176.733 212.806 174.899 210.151C174.835 210.058 174.77 209.973 174.706 209.888C174.172 209.187 173.634 208.779 173.104 208.779L199.61 192.381L211.064 185.292L202.812 165.631L192.462 140.968L198.709 121.13L204.988 101.188H216.756C216.756 101.188 220.653 109.676 225.635 121.513C226.38 123.284 227.149 125.129 227.933 127.034C238.183 151.917 250.963 186.665 245.225 192.868Z" fill="#D0CDE1"/>
<path d="M155.644 239.086C149.098 247.177 122.071 230.228 112.618 223.907C110.56 222.532 109.334 221.661 109.334 221.661L117.982 210.151L120.721 206.507C120.721 206.507 123.172 207.805 126.794 209.916C126.926 209.994 127.058 210.072 127.193 210.151C130.317 211.981 134.238 214.374 138.195 217.043C143.655 220.73 149.176 224.935 152.734 228.895C156.214 232.766 157.813 236.402 155.644 239.086Z" fill="#A0616A"/>
<path d="M126.794 209.916C125.827 209.912 124.862 209.991 123.909 210.151C115.721 211.555 113.306 218.952 112.618 223.907C112.398 225.421 112.315 226.951 112.369 228.479L105.135 222.926L102.499 220.904C96.156 218.696 90.5036 214.775 85.6026 210.151C81.351 206.068 77.5371 201.554 74.2229 196.682C70.9218 191.88 67.979 186.842 65.4183 181.61C64.7038 180.15 64.3197 178.55 64.2933 176.926C64.2668 175.301 64.5986 173.69 65.2652 172.207L74.2229 152.283L87.3158 123.163C87.412 122.47 87.5176 121.792 87.6328 121.13C90.2293 106.271 97.1853 99.6732 97.1853 99.6732H102.499L106.054 121.13L110.471 147.786L107.375 157.861L100.223 181.126L107.058 188.534L126.794 209.916Z" fill="#D0CDE1"/>
<path d="M132.808 147.808L137.351 153.097C139.039 152.776 140.802 152.399 142.617 151.975L141.312 147.808L144.503 151.523C163.735 146.802 187.574 137.623 187.574 137.623C187.574 137.623 161.838 139.506 142.622 135.317C134.12 133.463 125.372 137.669 121.883 145.626C119.855 150.251 120.174 154.258 127.366 154.258C129.796 154.217 132.22 153.989 134.615 153.578L132.808 147.808Z" fill="#F7F9F9"/>
<path d="M236.374 234.749V236.907C236.375 237.499 236.265 238.086 236.05 238.638C235.954 238.884 235.839 239.122 235.704 239.349C235.28 240.06 234.678 240.649 233.956 241.058C233.235 241.467 232.42 241.681 231.591 241.681H72.5418C71.7124 241.681 70.8972 241.467 70.176 241.058C69.4548 240.649 68.8525 240.06 68.428 239.349C68.2937 239.122 68.1781 238.884 68.0825 238.638C67.8671 238.086 67.7572 237.499 67.7584 236.907V234.749C67.7582 234.122 67.8818 233.502 68.1222 232.922C68.3625 232.343 68.7148 231.817 69.159 231.373C69.6032 230.93 70.1306 230.578 70.711 230.338C71.2915 230.099 71.9136 229.975 72.5418 229.975H81.7097V228.969C81.7096 228.943 81.7147 228.917 81.7248 228.893C81.7348 228.869 81.7495 228.847 81.768 228.829C81.7865 228.81 81.8085 228.795 81.8327 228.785C81.857 228.775 81.8829 228.77 81.9091 228.77H86.6925C86.7187 228.77 86.7447 228.775 86.7689 228.785C86.7931 228.795 86.8151 228.81 86.8337 228.829C86.8522 228.847 86.8669 228.869 86.8769 228.893C86.8869 228.917 86.892 228.943 86.892 228.969V229.975H89.8802V228.969C89.8802 228.943 89.8853 228.917 89.8953 228.893C89.9053 228.869 89.92 228.847 89.9386 228.829C89.9571 228.81 89.9791 228.795 90.0033 228.785C90.0275 228.775 90.0535 228.77 90.0797 228.77H94.8631C94.8893 228.77 94.9153 228.775 94.9395 228.785C94.9637 228.795 94.9857 228.81 95.0042 228.829C95.0228 228.847 95.0375 228.869 95.0475 228.893C95.0575 228.917 95.0626 228.943 95.0626 228.969V229.975H98.0544V228.969C98.0544 228.943 98.0595 228.917 98.0695 228.893C98.0795 228.869 98.0942 228.847 98.1127 228.829C98.1313 228.81 98.1533 228.795 98.1775 228.785C98.2017 228.775 98.2277 228.77 98.2539 228.77H103.037C103.063 228.77 103.089 228.775 103.114 228.785C103.138 228.795 103.16 228.81 103.178 228.829C103.197 228.847 103.212 228.869 103.222 228.893C103.232 228.917 103.237 228.943 103.237 228.969V229.975H106.225V228.969C106.225 228.943 106.23 228.917 106.24 228.893C106.25 228.869 106.265 228.847 106.283 228.829C106.302 228.81 106.324 228.795 106.348 228.785C106.372 228.775 106.398 228.77 106.424 228.77H111.208C111.234 228.77 111.26 228.775 111.284 228.785C111.308 228.795 111.33 228.81 111.349 228.829C111.368 228.847 111.382 228.869 111.392 228.893C111.402 228.917 111.407 228.943 111.407 228.969V229.975H114.396V228.969C114.396 228.943 114.401 228.917 114.411 228.893C114.421 228.869 114.435 228.847 114.454 228.829C114.472 228.81 114.494 228.795 114.519 228.785C114.543 228.775 114.569 228.77 114.595 228.77H119.378C119.405 228.77 119.431 228.775 119.455 228.785C119.479 228.795 119.501 228.81 119.52 228.829C119.538 228.847 119.553 228.869 119.563 228.893C119.573 228.917 119.578 228.943 119.578 228.969V229.975H122.57V228.969C122.57 228.943 122.575 228.917 122.585 228.893C122.595 228.869 122.61 228.847 122.628 228.829C122.647 228.81 122.669 228.795 122.693 228.785C122.717 228.775 122.743 228.77 122.769 228.77H127.553C127.579 228.77 127.605 228.775 127.629 228.785C127.653 228.795 127.675 228.81 127.694 228.829C127.712 228.847 127.727 228.869 127.737 228.893C127.747 228.917 127.752 228.943 127.752 228.969V229.975H130.74V228.969C130.74 228.943 130.745 228.917 130.755 228.893C130.765 228.869 130.78 228.847 130.799 228.829C130.817 228.81 130.839 228.795 130.863 228.785C130.888 228.775 130.914 228.77 130.94 228.77H168.409C168.435 228.77 168.461 228.775 168.486 228.785C168.51 228.795 168.532 228.81 168.55 228.829C168.569 228.847 168.584 228.869 168.594 228.893C168.604 228.917 168.609 228.943 168.609 228.969V229.975H171.6V228.969C171.6 228.943 171.606 228.917 171.616 228.893C171.626 228.869 171.64 228.847 171.659 228.829C171.677 228.81 171.699 228.795 171.724 228.785C171.748 228.775 171.774 228.77 171.8 228.77H176.583C176.636 228.771 176.687 228.792 176.724 228.829C176.761 228.866 176.782 228.917 176.783 228.969V229.975H179.771V228.969C179.771 228.943 179.776 228.917 179.786 228.893C179.796 228.869 179.811 228.847 179.829 228.829C179.848 228.81 179.87 228.795 179.894 228.785C179.918 228.775 179.944 228.77 179.971 228.77H184.754C184.78 228.77 184.806 228.775 184.83 228.785C184.855 228.795 184.877 228.81 184.895 228.829C184.914 228.847 184.928 228.869 184.938 228.893C184.948 228.917 184.953 228.943 184.953 228.969V229.975H187.942V228.969C187.942 228.943 187.947 228.917 187.957 228.893C187.967 228.869 187.982 228.847 188 228.829C188.019 228.81 188.041 228.795 188.065 228.785C188.089 228.775 188.115 228.77 188.141 228.77H192.925C192.951 228.77 192.977 228.775 193.001 228.785C193.025 228.795 193.047 228.81 193.066 228.829C193.084 228.847 193.099 228.869 193.109 228.893C193.119 228.917 193.124 228.943 193.124 228.969V229.975H196.116V228.969C196.116 228.943 196.121 228.917 196.131 228.893C196.141 228.869 196.156 228.847 196.174 228.829C196.193 228.81 196.215 228.795 196.239 228.785C196.263 228.775 196.289 228.77 196.315 228.77H201.099C201.151 228.771 201.201 228.792 201.238 228.83C201.275 228.867 201.295 228.917 201.295 228.969V229.975H204.286V228.969C204.286 228.943 204.292 228.917 204.302 228.893C204.312 228.869 204.326 228.847 204.345 228.829C204.363 228.81 204.385 228.795 204.41 228.785C204.434 228.775 204.46 228.77 204.486 228.77H209.269C209.296 228.77 209.322 228.775 209.346 228.785C209.37 228.795 209.392 228.81 209.41 228.829C209.429 228.847 209.444 228.869 209.454 228.893C209.464 228.917 209.469 228.943 209.469 228.969V229.975H212.457V228.969C212.457 228.943 212.462 228.917 212.472 228.893C212.482 228.869 212.497 228.847 212.515 228.829C212.534 228.81 212.556 228.795 212.58 228.785C212.604 228.775 212.63 228.77 212.657 228.77H217.44C217.466 228.77 217.492 228.775 217.516 228.785C217.541 228.795 217.563 228.81 217.581 228.829C217.6 228.847 217.614 228.869 217.624 228.893C217.634 228.917 217.639 228.943 217.639 228.969V229.975H231.591C232.219 229.975 232.841 230.099 233.421 230.338C234.002 230.578 234.529 230.93 234.973 231.373C235.418 231.817 235.77 232.343 236.01 232.922C236.251 233.502 236.374 234.122 236.374 234.749Z" fill="#3F3D56"/>
<path d="M282.623 238.638H21.5485V239.349H282.623V238.638Z" fill="#3F3D56"/>
<path d="M223.568 143.88H164.285V142.661H137.404V143.88H77.8775C76.814 143.88 75.794 144.302 75.042 145.052C74.29 145.803 73.8675 146.821 73.8675 147.882V228.899C73.8675 229.96 74.2899 230.978 75.042 231.728C75.794 232.479 76.814 232.901 77.8775 232.901H223.568C224.631 232.901 225.651 232.479 226.403 231.728C227.155 230.978 227.578 229.96 227.578 228.899V147.882C227.578 147.357 227.474 146.836 227.272 146.351C227.071 145.865 226.775 145.424 226.403 145.052C226.031 144.681 225.589 144.386 225.102 144.185C224.616 143.984 224.094 143.88 223.568 143.88Z" fill="#3F3D56"/>
<path d="M150.839 181.052C155.757 181.052 159.744 177.073 159.744 172.165C159.744 167.257 155.757 163.278 150.839 163.278C145.921 163.278 141.935 167.257 141.935 172.165C141.935 177.073 145.921 181.052 150.839 181.052Z" stroke="#D0CDE1" stroke-width="2" stroke-miterlimit="10"/>
<path d="M147.99 184.251C152.908 184.251 156.894 180.272 156.894 175.364C156.894 170.456 152.908 166.477 147.99 166.477C143.072 166.477 139.086 170.456 139.086 175.364C139.086 180.272 143.072 184.251 147.99 184.251Z" fill="#D0CDE1"/>
<path d="M38.6255 235.047H28.6527V245H38.6255V235.047Z" fill="#D0CDE1"/>
<path d="M32.572 227.226V239.313H44.6819V227.226H32.572ZM44.1547 238.786H33.0956V227.753H44.1547V238.786Z" fill="#3F3D56"/>
<path d="M269.425 235.047H259.453V245H269.425V235.047Z" fill="#D0CDE1"/>
<path d="M263.372 227.226V239.313H275.482V227.226H263.372ZM274.955 238.786H263.895V227.753H274.955V238.786Z" fill="#3F3D56"/>
<path d="M33.6868 81.799C49.2938 81.799 61.9457 69.172 61.9457 53.5957C61.9457 38.0194 49.2938 25.3923 33.6868 25.3923C18.0799 25.3923 5.42795 38.0194 5.42795 53.5957C5.42795 69.172 18.0799 81.799 33.6868 81.799Z" fill="#F7F9F9"/>
<path d="M43.5346 20.0807C40.9759 19.7559 38.3863 19.7559 35.8277 20.0807C30.1273 20.8276 24.7613 23.191 20.3664 26.8903C15.9715 30.5896 12.7321 35.4696 11.0327 40.9511C10.2597 43.4493 9.82205 46.0386 9.73101 48.6515C9.71819 49.0147 9.70961 49.3823 9.70961 49.7498C9.71755 57.6807 12.8778 65.2845 18.4968 70.8925C24.1159 76.5005 31.7347 79.6545 39.6812 79.6624C40.3191 79.6624 40.9571 79.6411 41.5865 79.6026C43.064 79.5101 44.5324 79.3073 45.9795 78.9958C52.8899 77.5127 59.0529 73.64 63.3799 68.0618C67.7069 62.4836 69.9195 55.5587 69.627 48.5102C69.3345 41.4618 66.5557 34.7432 61.7814 29.5412C57.007 24.3392 50.5443 20.9884 43.5346 20.0807H43.5346ZM49.0622 77.2609H49.058C46.6442 78.0829 44.1317 78.5816 41.5865 78.7437C40.9571 78.7864 40.3191 78.8078 39.6811 78.8078C31.9622 78.7984 24.5621 75.7339 19.104 70.2865C13.6459 64.8391 10.5754 57.4535 10.5659 49.7498C10.5659 49.3823 10.5745 49.0147 10.5873 48.6515C10.8817 41.1438 14.0745 34.0407 19.4974 28.8292C24.9203 23.6176 32.1529 20.7017 39.6811 20.6917C46.5789 20.6921 53.2525 23.1365 58.5131 27.5894C63.7736 32.0423 67.2793 38.2145 68.4056 45.0063C69.5319 51.7981 68.2057 58.7685 64.6632 64.6755C61.1207 70.5825 55.592 75.0425 49.0622 77.2609H49.0622Z" fill="#3F3D56"/>
<path d="M40.1093 22.401H39.253V28.3836H40.1093V22.401Z" fill="#3F3D56"/>
<path d="M20.6074 30.1091L20.0019 30.7135L24.2405 34.9437L24.846 34.3394L20.6074 30.1091Z" fill="#3F3D56"/>
<path d="M12.2786 49.3224V50.1771H18.2729V49.3224H12.2786Z" fill="#3F3D56"/>
<path d="M20.0019 68.7861L20.6074 69.3904L24.846 65.1601L24.2405 64.5558L20.0019 68.7861Z" fill="#3F3D56"/>
<path d="M54.5163 34.3394L55.1218 34.9437L59.3605 30.7134L58.7549 30.1091L54.5163 34.3394Z" fill="#3F3D56"/>
<path d="M61.0894 49.3224V50.1771H67.0837V49.3224H61.0894Z" fill="#3F3D56"/>
<path d="M55.1218 64.5558L54.5163 65.1601L58.7549 69.3904L59.3604 68.7861L55.1218 64.5558Z" fill="#3F3D56"/>
<path d="M40.1093 71.116H39.253V77.0985H40.1093V71.116Z" fill="#3F3D56"/>
<path d="M40.9656 48.0405C40.5951 47.7631 40.1444 47.6131 39.6812 47.6131C39.2179 47.6131 38.7672 47.7631 38.3967 48.0405C38.143 48.2328 37.9341 48.4777 37.7844 48.7584C37.5947 49.1198 37.5127 49.5278 37.548 49.9343C37.5832 50.3407 37.7344 50.7286 37.9835 51.0521C38.2326 51.3755 38.5693 51.6211 38.9538 51.7596C39.3383 51.8982 39.7544 51.924 40.1532 51.8341C40.5519 51.7441 40.9165 51.5421 41.2038 51.2519C41.4911 50.9617 41.6892 50.5955 41.7747 50.1965C41.8601 49.7976 41.8294 49.3825 41.686 49.0005C41.5426 48.6184 41.2927 48.2853 40.9657 48.0405H40.9656ZM39.6812 51.0317C39.3408 51.0307 39.0147 50.8954 38.774 50.6552C38.5333 50.415 38.3977 50.0895 38.3967 49.7498C38.3983 49.4905 38.4773 49.2376 38.6236 49.0233C38.7491 48.842 38.9193 48.696 39.1178 48.5995C39.3163 48.5031 39.5364 48.4593 39.7568 48.4726C39.9772 48.4859 40.1905 48.5557 40.3759 48.6752C40.5614 48.7948 40.7128 48.9601 40.8155 49.1552C40.9182 49.3503 40.9688 49.5685 40.9623 49.7888C40.9558 50.009 40.8924 50.2239 40.7783 50.4126C40.6643 50.6013 40.5034 50.7574 40.3112 50.8659C40.119 50.9743 39.902 51.0315 39.6812 51.0317V51.0317Z" fill="#3F3D56"/>
<path d="M43.5346 12.5726H35.8277V20.2644H43.5346V12.5726Z" fill="#3F3D56"/>
<path d="M39.6811 13.8546C45.3564 13.8546 49.9571 12.2283 49.9571 10.2223C49.9571 8.21626 45.3564 6.59004 39.6811 6.59004C34.0059 6.59004 29.4052 8.21626 29.4052 10.2223C29.4052 12.2283 34.0059 13.8546 39.6811 13.8546Z" fill="#3F3D56"/>
<path d="M40.9656 33.5114H38.3967V48.0405H40.9656V33.5114Z" fill="#3F3D56"/>
<path d="M80.495 78.3605H0V79.2151H80.495V78.3605Z" fill="#3F3D56"/>
<path d="M53.6373 213.196C53.9697 224.554 47.3206 228.716 38.9761 228.959C38.7823 228.965 38.5894 228.968 38.3973 228.969C38.0103 228.972 37.6271 228.966 37.2476 228.95C29.7009 228.638 23.7273 224.639 23.4182 214.077C23.0984 203.146 36.6924 188.944 37.7123 187.894L37.7141 187.893C37.7529 187.853 37.7727 187.833 37.7727 187.833C37.7727 187.833 53.305 201.84 53.6373 213.196Z" fill="#D0CDE1"/>
<path d="M38.3754 227.238L43.6761 219.371L38.3862 228.084L38.3973 228.969C38.0103 228.972 37.6271 228.966 37.2476 228.95L37.5105 217.571L37.5033 217.483L37.513 217.466L37.5382 216.391L31.7333 207.979L37.5313 215.586L37.5519 215.813L37.7505 207.216L32.7367 198.495L37.7648 205.705L37.7123 187.894L37.7124 187.834L37.7141 187.893L38.0469 201.931L42.6165 196.228L38.0619 203.14L38.1616 210.83L42.3665 203.325L38.1771 211.961L38.2326 216.237L44.3477 205.782L38.2512 217.729L38.3754 227.238Z" fill="#3F3D56"/>
<path d="M284.437 213.196C284.77 224.554 278.12 228.716 269.776 228.959C269.582 228.965 269.389 228.968 269.197 228.969C268.81 228.972 268.427 228.966 268.047 228.95C260.501 228.638 254.527 224.639 254.218 214.077C253.898 203.146 267.492 188.944 268.512 187.894L268.514 187.893C268.553 187.853 268.573 187.833 268.573 187.833C268.573 187.833 284.105 201.84 284.437 213.196Z" fill="#D0CDE1"/>
<path d="M269.175 227.238L274.476 219.371L269.186 228.084L269.197 228.969C268.81 228.972 268.427 228.966 268.047 228.95L268.31 217.571L268.303 217.483L268.313 217.466L268.338 216.391L262.533 207.979L268.331 215.586L268.352 215.813L268.55 207.216L263.537 198.495L268.565 205.705L268.512 187.894L268.512 187.834L268.514 187.893L268.847 201.931L273.416 196.228L268.862 203.14L268.961 210.83L273.166 203.325L268.977 211.961L269.032 216.237L275.147 205.782L269.051 217.729L269.175 227.238Z" fill="#3F3D56"/>
</g>
<defs>
<clipPath id="clip0_10_164">
<rect width="284.449" height="245" fill="white"/>
</clipPath>
</defs>
</svg>
