<svg viewBox="0 0 262 245" fill="none" xmlns="http://www.w3.org/2000/svg">
<g clip-path="url(#clip0_10_119)">
<path d="M242.194 187.432L253.947 189.269C257.926 184.452 260.668 178.738 261.937 172.622C253.342 179.655 240.273 175.918 229.851 179.758C226.61 180.98 223.686 182.916 221.295 185.423C218.904 187.929 217.108 190.941 216.039 194.236L210.295 200.414C215.495 202.472 221.079 203.379 226.662 203.072C232.246 202.764 237.697 201.25 242.639 198.634C245.397 197.139 247.956 195.302 250.255 193.168C246.142 190.579 242.194 187.432 242.194 187.432Z" fill="#F2F2F2"/>
<path d="M238.021 168.638L249.36 165.041C250.773 158.956 250.679 152.619 249.086 146.579C244.531 156.706 231.166 159.189 223.551 167.272C221.196 169.812 219.442 172.849 218.42 176.158C217.397 179.467 217.133 182.964 217.647 186.389L215.262 194.481C220.833 194.005 226.236 192.326 231.096 189.561C235.957 186.796 240.16 183.011 243.417 178.465C245.218 175.897 246.689 173.113 247.795 170.177C242.959 169.694 238.021 168.638 238.021 168.638Z" fill="#F2F2F2"/>
<path d="M262 204.157C262 204.218 261.988 204.278 261.965 204.334C261.942 204.39 261.908 204.441 261.865 204.484C261.822 204.527 261.771 204.561 261.715 204.584C261.659 204.607 261.599 204.619 261.539 204.619H0.461439C0.339058 204.619 0.221688 204.57 0.135152 204.484C0.048615 204.397 0 204.28 0 204.157C0 204.035 0.048615 203.918 0.135152 203.831C0.221688 203.745 0.339058 203.696 0.461439 203.696H261.539C261.599 203.696 261.659 203.708 261.715 203.731C261.771 203.754 261.822 203.788 261.865 203.831C261.908 203.874 261.942 203.924 261.965 203.981C261.988 204.037 262 204.097 262 204.157Z" fill="#CCCCCC"/>
<path d="M108.185 184.489C154.229 184.489 191.554 147.17 191.554 101.135C191.554 55.1004 154.229 17.7818 108.185 17.7818C62.1416 17.7818 24.816 55.1004 24.816 101.135C24.816 147.17 62.1416 184.489 108.185 184.489Z" fill="#E6E6E6"/>
<path d="M179.921 101.135C179.93 112.327 177.315 123.364 172.287 133.363C167.258 143.362 159.957 152.043 150.967 158.711C150.366 159.161 149.753 159.599 149.137 160.026C137.115 168.38 122.825 172.858 108.185 172.858C93.5447 172.858 79.2547 168.38 67.2334 160.026C66.6168 159.599 66.0042 159.161 65.4031 158.711C56.4196 152.037 49.1224 143.355 44.0949 133.357C39.0673 123.36 36.4489 112.325 36.4489 101.135C36.4489 89.9454 39.0673 78.9107 44.0949 68.9133C49.1224 58.916 56.4196 50.2333 65.4031 43.5594C66.0042 43.1096 66.6168 42.6716 67.2334 42.2451C79.2547 33.8904 93.5447 29.4125 108.185 29.4125C122.825 29.4125 137.115 33.8904 149.137 42.2451C149.753 42.6716 150.366 43.1096 150.967 43.5594C159.957 50.2274 167.258 58.9089 172.287 68.9076C177.315 78.9063 179.93 89.9439 179.921 101.135Z" fill="white"/>
<path d="M108.185 166.655C144.377 166.655 173.717 137.321 173.717 101.135C173.717 64.9497 144.377 35.6155 108.185 35.6155C71.9928 35.6155 42.6531 64.9497 42.6531 101.135C42.6531 137.321 71.9928 166.655 108.185 166.655Z" fill="#368F8B"/>
<path opacity="0.2" d="M108.356 35.7987C107.363 35.7987 106.375 35.8247 105.393 35.8684C121.956 37.3236 137.346 45.0191 148.446 57.3959C159.545 69.7726 165.524 85.9051 165.172 102.525C164.819 119.145 158.16 135.009 146.545 146.904C134.93 158.798 119.227 165.834 102.618 166.585C104.509 166.749 106.422 166.838 108.356 166.838C125.736 166.838 142.405 159.935 154.694 147.648C166.984 135.361 173.888 118.695 173.888 101.318C173.888 83.9416 166.984 67.2763 154.694 54.989C142.405 42.7017 125.736 35.7987 108.356 35.7987V35.7987Z" fill="black"/>
<path d="M108.379 30.9633C107.814 30.9642 107.272 31.1892 106.872 31.5889C106.472 31.9886 106.247 32.5303 106.246 33.0956V42.4001C106.246 42.9657 106.471 43.508 106.871 43.9079C107.271 44.3078 107.813 44.5324 108.379 44.5324C108.945 44.5324 109.487 44.3078 109.887 43.9079C110.287 43.508 110.512 42.9657 110.512 42.4001V33.0956C110.511 32.5303 110.286 31.9886 109.886 31.5889C109.486 31.1892 108.944 30.9642 108.379 30.9633Z" fill="white"/>
<path d="M150.967 43.5593C150.366 43.1096 149.753 42.6715 149.137 42.2451C148.767 42.2209 148.397 42.2937 148.064 42.4562C147.73 42.6187 147.445 42.8653 147.237 43.1716L141.998 50.8595C141.68 51.3269 141.56 51.9015 141.666 52.4569C141.771 53.0124 142.093 53.5033 142.56 53.8215C143.028 54.1397 143.602 54.2593 144.158 54.1539C144.714 54.0484 145.204 53.7267 145.523 53.2593L150.761 45.5714C150.961 45.2798 151.084 44.9429 151.12 44.5915C151.156 44.2401 151.103 43.8853 150.967 43.5593Z" fill="white"/>
<path d="M174.768 78.6144C174.663 78.3552 174.507 78.1192 174.311 77.9201C174.114 77.721 173.88 77.5625 173.622 77.4538C173.365 77.345 173.088 77.2882 172.808 77.2864C172.528 77.2847 172.251 77.3381 171.992 77.4435L163.368 80.9444C162.844 81.1576 162.427 81.5698 162.207 82.0906C161.988 82.6113 161.984 83.1979 162.197 83.7215C162.409 84.245 162.821 84.6627 163.342 84.8828C163.862 85.1028 164.449 85.1072 164.973 84.895L173.597 81.3941C174.12 81.1798 174.537 80.767 174.757 80.246C174.976 79.7251 174.98 79.1384 174.768 78.6144Z" fill="white"/>
<path d="M74.3721 50.8595L69.1334 43.1716C68.9247 42.8653 68.6396 42.6187 68.3064 42.4562C67.9732 42.2937 67.6033 42.2209 67.2334 42.2451C66.6168 42.6715 66.0042 43.1096 65.4031 43.5593C65.2669 43.8853 65.2143 44.2401 65.2502 44.5915C65.2861 44.9429 65.4093 45.2798 65.6087 45.5714L70.8473 53.2593C71.1656 53.7267 71.6566 54.0484 72.2121 54.1539C72.7677 54.2593 73.3424 54.1397 73.8098 53.8215C74.2773 53.5033 74.5991 53.0124 74.7045 52.4569C74.81 51.9015 74.6904 51.3269 74.3721 50.8595Z" fill="white"/>
<path d="M53.0025 80.9444L44.3786 77.4435C43.8547 77.2308 43.2677 77.2349 42.7467 77.4548C42.2258 77.6748 41.8135 78.0926 41.6007 78.6164C41.3878 79.1402 41.3918 79.7271 41.6117 80.248C41.8316 80.7689 42.2494 81.1812 42.7733 81.3941L51.3971 84.8949C51.921 85.1071 52.5077 85.1028 53.0283 84.8827C53.549 84.6627 53.9609 84.245 54.1737 83.7214C54.3864 83.1978 54.3826 82.6113 54.163 82.0905C53.9434 81.5698 53.526 81.1575 53.0025 80.9443V80.9444Z" fill="white"/>
<path d="M108.379 157.738C107.814 157.739 107.272 157.964 106.872 158.364C106.472 158.763 106.247 159.305 106.246 159.87V169.175C106.246 169.741 106.471 170.283 106.871 170.683C107.271 171.083 107.813 171.307 108.379 171.307C108.945 171.307 109.487 171.083 109.887 170.683C110.287 170.283 110.512 169.741 110.512 169.175V159.87C110.511 159.305 110.286 158.763 109.886 158.364C109.486 157.964 108.944 157.739 108.379 157.738Z" fill="white"/>
<path d="M150.761 156.699L145.523 149.011C145.365 148.78 145.164 148.582 144.929 148.428C144.695 148.275 144.433 148.169 144.158 148.117C143.883 148.065 143.6 148.067 143.326 148.124C143.052 148.181 142.792 148.292 142.56 148.449C142.329 148.607 142.131 148.808 141.977 149.042C141.824 149.277 141.718 149.539 141.666 149.814C141.613 150.089 141.616 150.371 141.673 150.645C141.73 150.919 141.84 151.18 141.998 151.411L147.237 159.099C147.445 159.405 147.731 159.652 148.064 159.814C148.397 159.977 148.767 160.05 149.137 160.026C149.753 159.599 150.366 159.161 150.967 158.711C151.103 158.385 151.156 158.031 151.12 157.679C151.084 157.328 150.961 156.991 150.761 156.699Z" fill="white"/>
<path d="M173.597 120.876L164.973 117.376C164.449 117.163 163.862 117.167 163.341 117.387C162.82 117.607 162.408 118.025 162.195 118.549C161.982 119.072 161.986 119.659 162.206 120.18C162.426 120.701 162.844 121.113 163.368 121.326L171.992 124.827C172.515 125.039 173.102 125.035 173.623 124.815C174.143 124.595 174.555 124.177 174.768 123.654C174.981 123.13 174.977 122.543 174.757 122.023C174.538 121.502 174.12 121.09 173.597 120.876V120.876Z" fill="white"/>
<path d="M73.8098 148.449C73.3424 148.131 72.7677 148.012 72.2122 148.117C71.6566 148.222 71.1657 148.544 70.8473 149.011L65.6087 156.699C65.4093 156.991 65.2861 157.328 65.2502 157.679C65.2143 158.031 65.2669 158.385 65.4031 158.711C66.0042 159.161 66.6168 159.599 67.2334 160.026C67.6033 160.05 67.9732 159.977 68.3064 159.814C68.6396 159.652 68.9247 159.405 69.1334 159.099L74.3721 151.411C74.5297 151.18 74.6402 150.919 74.6973 150.645C74.7543 150.371 74.7568 150.089 74.7046 149.814C74.6524 149.539 74.5465 149.276 74.393 149.042C74.2394 148.808 74.0413 148.607 73.8098 148.449Z" fill="white"/>
<path d="M54.1735 118.547C54.0682 118.287 53.9128 118.051 53.7163 117.852C53.5197 117.653 53.2858 117.495 53.028 117.386C52.7702 117.277 52.4934 117.22 52.2136 117.219C51.9338 117.217 51.6563 117.27 51.3972 117.376L42.7733 120.877C42.2498 121.09 41.8324 121.502 41.6128 122.023C41.3932 122.543 41.3894 123.13 41.6021 123.654C41.8149 124.177 42.2268 124.595 42.7474 124.815C43.2681 125.035 43.8548 125.039 44.3786 124.827L53.0025 121.326C53.5257 121.112 53.9427 120.699 54.1622 120.178C54.3817 119.657 54.3858 119.07 54.1735 118.547Z" fill="white"/>
<path d="M111.146 100.077C111.343 101.243 111.07 102.439 110.386 103.403C109.702 104.367 108.663 105.021 107.498 105.22L69.6528 111.656C69.0755 111.755 68.4845 111.738 67.9135 111.608C67.3426 111.478 66.8029 111.236 66.3252 110.898C65.8476 110.559 65.4413 110.129 65.1297 109.634C64.818 109.138 64.607 108.586 64.5089 108.009C64.4107 107.431 64.4271 106.841 64.5573 106.27C64.6875 105.699 64.9289 105.159 65.2677 104.682C65.6065 104.204 66.036 103.798 66.5318 103.486C67.0276 103.175 67.5799 102.964 68.1572 102.866L106.002 96.4296C107.168 96.2327 108.364 96.5061 109.329 97.19C110.293 97.8738 110.947 98.9122 111.146 100.077Z" fill="#3F3D56"/>
<path d="M150.977 141.999C150.433 142.545 149.695 142.854 148.924 142.857C148.153 142.86 147.412 142.557 146.864 142.015L106.125 101.602C105.578 101.059 105.269 100.321 105.267 99.5502C105.264 98.7796 105.567 98.0393 106.11 97.4922C106.653 96.9451 107.391 96.6359 108.162 96.6325C108.933 96.6291 109.673 96.9318 110.221 97.4741L150.961 137.887C151.508 138.43 151.816 139.168 151.819 139.939C151.822 140.71 151.519 141.451 150.977 141.999Z" fill="#3F3D56"/>
<path d="M108.185 106.175C110.969 106.175 113.226 103.919 113.226 101.135C113.226 98.3518 110.969 96.0953 108.185 96.0953C105.401 96.0953 103.144 98.3518 103.144 101.135C103.144 103.919 105.401 106.175 108.185 106.175Z" fill="#CCCCCC"/>
<path d="M73.4632 13.7416C65.7255 25.9044 53.9194 33.9762 39.3596 39.279C39.0719 39.4944 38.7445 39.6511 38.3963 39.74C38.048 39.829 37.6856 39.8485 37.3298 39.7975C36.974 39.7464 36.6317 39.6258 36.3226 39.4424C36.0134 39.2591 35.7433 39.0167 35.5279 38.7291C27.6191 28.1713 29.4049 13.0821 39.8428 5.01476C42.3663 3.06773 45.2516 1.64128 48.331 0.818223C51.4104 -0.0048359 54.6227 -0.208113 57.7813 0.2202C60.9399 0.648512 63.982 1.69988 66.7309 3.31326C69.4799 4.92664 71.8808 7.06991 73.7945 9.61862L74.0133 9.91063C74.2288 10.1983 74.3855 10.5256 74.4744 10.8738C74.5634 11.222 74.5829 11.5843 74.5318 11.94C74.4808 12.2958 74.3601 12.638 74.1768 12.9471C73.9934 13.2562 73.751 13.5262 73.4632 13.7416Z" fill="#E6E6E6"/>
<path d="M142.576 9.61862C144.489 7.0699 146.89 4.92664 149.639 3.31326C152.388 1.69987 155.43 0.648514 158.589 0.220201C161.747 -0.208111 164.96 -0.00484015 168.039 0.818219C171.119 1.64128 174.004 3.06773 176.527 5.01475C186.965 13.0821 188.751 28.1713 180.842 38.7291C180.627 39.0167 180.357 39.2591 180.048 39.4424C179.738 39.6258 179.396 39.7464 179.04 39.7975C178.685 39.8485 178.322 39.829 177.974 39.74C177.626 39.6511 177.298 39.4944 177.011 39.279C163.494 34.1051 152.41 25.1517 142.907 13.7416C142.326 13.3065 141.941 12.6584 141.838 11.94C141.735 11.2215 141.922 10.4916 142.357 9.91062L142.576 9.61862Z" fill="#E6E6E6"/>
<path d="M139.184 173.35C138.691 173.627 138.328 174.088 138.175 174.632C138.021 175.175 138.089 175.758 138.364 176.252L150.673 198.243C150.949 198.736 151.41 199.099 151.954 199.253C152.499 199.407 153.082 199.338 153.575 199.062C154.069 198.786 154.432 198.325 154.586 197.781C154.74 197.237 154.671 196.654 154.395 196.16L142.087 174.169C141.81 173.677 141.349 173.314 140.805 173.16C140.261 173.006 139.678 173.075 139.184 173.35Z" fill="#E6E6E6"/>
<path d="M74.2834 174.169L61.9751 196.16C61.699 196.654 61.6303 197.237 61.7841 197.781C61.9378 198.325 62.3014 198.786 62.795 199.062C63.2885 199.338 63.8715 199.407 64.4158 199.253C64.9601 199.099 65.421 198.736 65.6973 198.243L78.0056 176.252C78.1425 176.007 78.2299 175.739 78.2627 175.46C78.2956 175.182 78.2734 174.9 78.1973 174.631C78.1212 174.361 77.9927 174.109 77.8193 173.89C77.6458 173.67 77.4307 173.486 77.1863 173.349C76.9418 173.213 76.6728 173.125 76.3946 173.093C76.1165 173.06 75.8345 173.082 75.565 173.158C75.2954 173.234 75.0435 173.363 74.8236 173.536C74.6037 173.71 74.4202 173.925 74.2834 174.169H74.2834Z" fill="#E6E6E6"/>
<path d="M153.166 203.873C156.806 203.873 159.758 200.923 159.758 197.283C159.758 193.643 156.806 190.692 153.166 190.692C149.525 190.692 146.574 193.643 146.574 197.283C146.574 200.923 149.525 203.873 153.166 203.873Z" fill="#E6E6E6"/>
<path d="M157.819 35.2279C161.459 35.2279 164.411 32.2771 164.411 28.6371C164.411 24.9972 161.459 22.0464 157.819 22.0464C154.178 22.0464 151.227 24.9972 151.227 28.6371C151.227 32.2771 154.178 35.2279 157.819 35.2279Z" fill="#E6E6E6"/>
<path d="M107.797 19.7202C111.438 19.7202 114.389 16.7695 114.389 13.1295C114.389 9.48953 111.438 6.53876 107.797 6.53876C104.157 6.53876 101.205 9.48953 101.205 13.1295C101.205 16.7695 104.157 19.7202 107.797 19.7202Z" fill="#E6E6E6"/>
<path d="M60.1024 34.4525C63.7431 34.4525 66.6944 31.5017 66.6944 27.8617C66.6944 24.2218 63.7431 21.271 60.1024 21.271C56.4618 21.271 53.5104 24.2218 53.5104 27.8617C53.5104 31.5017 56.4618 34.4525 60.1024 34.4525Z" fill="#E6E6E6"/>
<path d="M64.3678 203.873C68.0085 203.873 70.9598 200.923 70.9598 197.283C70.9598 193.643 68.0085 190.692 64.3678 190.692C60.7272 190.692 57.7758 193.643 57.7758 197.283C57.7758 200.923 60.7272 203.873 64.3678 203.873Z" fill="#E6E6E6"/>
<path d="M147.995 138.292C148.255 138.699 148.601 139.044 149.008 139.302C149.416 139.561 149.875 139.727 150.354 139.789C150.833 139.851 151.319 139.807 151.779 139.661C152.239 139.515 152.662 139.269 153.017 138.942L163.36 144.483L162.806 138.412L153.068 134.08C152.479 133.521 151.705 133.197 150.892 133.169C150.08 133.142 149.286 133.414 148.66 133.933C148.035 134.452 147.622 135.183 147.499 135.986C147.377 136.789 147.553 137.61 147.995 138.292H147.995Z" fill="#FFB7B7"/>
<path d="M155.532 140.411L159.585 134.817L179.113 144.046L203.413 139.488C204.614 139.262 205.85 139.304 207.033 139.61C208.216 139.916 209.317 140.479 210.259 141.258C211.2 142.038 211.958 143.015 212.479 144.12C213 145.225 213.271 146.432 213.274 147.653C213.275 149.86 212.401 151.978 210.843 153.541C209.285 155.105 207.171 155.986 204.963 155.993L177.116 156.044L155.532 140.411Z" fill="#3F3D56"/>
<path d="M149.288 237.034L145.187 235.073L150.821 217.934L156.873 220.828L149.288 237.034Z" fill="#FFB7B7"/>
<path d="M176.783 234.271C176.485 234.458 176.187 234.641 175.886 234.825C175.286 235.192 174.681 235.554 174.075 235.909C173.771 236.087 173.464 236.265 173.159 236.439V236.448L173.141 236.451L173.135 236.454L172.671 236.569L172.006 234.81L171.698 234L171.264 232.852L170.469 230.753L166.282 219.699L172.792 218.094L173.036 219.091H173.039L173.159 219.585L175.434 228.807L175.898 230.693L175.913 230.75L176.193 231.876L176.434 232.852L176.702 233.943L176.783 234.271Z" fill="#FFB7B7"/>
<path d="M215.617 195.453C215.204 196.116 214.783 196.775 214.358 197.429C213.569 198.646 212.758 199.845 211.927 201.025C211.927 201.028 211.924 201.028 211.921 201.031C211.436 201.48 210.9 201.872 210.324 202.197C210.3 202.215 210.273 202.227 210.249 202.242C209.825 202.476 209.374 202.657 208.905 202.781C208.737 202.823 208.565 202.865 208.396 202.908C207.788 203.052 207.185 203.176 206.586 203.284C205.519 203.474 204.465 203.609 203.417 203.694C203.332 203.703 203.248 203.709 203.164 203.715C198.853 204.031 194.657 203.522 190.276 202.688C188.114 202.278 185.905 201.787 183.619 201.278C182.872 201.109 182.122 200.944 181.363 200.778C181.305 200.766 181.245 200.751 181.185 200.739C180.1 200.501 178.998 200.266 177.868 200.034C176.446 199.742 174.979 199.459 173.455 199.191L173.564 201.338C173.654 202.99 173.997 204.619 174.582 206.166C175.232 208.07 175.748 209.576 174.66 212.711L174.136 214.229C174.408 214.983 174.501 215.789 174.408 216.585C174.316 217.381 174.04 218.145 173.603 218.816L173.497 218.976L177.868 230.032L178.151 230.749H175.913L173.16 230.752H168.494L161.761 217.247L161.438 216.603V216.569L162.134 190.616C162.143 190.387 162.161 190.155 162.192 189.926C162.314 188.886 162.643 187.88 163.159 186.968C163.674 186.056 164.367 185.255 165.195 184.614C165.989 183.993 166.898 183.537 167.87 183.271C168.841 183.005 169.856 182.936 170.855 183.065L173.16 183.364L177.868 183.972L181.185 184.403L181.251 184.412L191.033 185.677L191.734 182.815L191.864 182.767L195.982 181.258L210.225 176.039L210.261 176.027L211.198 175.683L211.309 175.864C211.342 175.918 211.376 175.972 211.406 176.027C212.332 177.686 213.086 179.436 213.656 181.249C214.615 184.211 215.404 187.225 216.021 190.276C216.048 190.408 216.072 190.529 216.093 190.637L216.102 190.67C216.111 190.722 216.117 190.755 216.12 190.764C216.448 192.131 216.22 193.8 215.617 195.453Z" fill="#2F2E41"/>
<path d="M216.218 185.889C216.173 185.696 216.116 185.5 216.056 185.31C215.577 183.873 215.02 182.464 214.387 181.088C213.676 179.522 212.823 177.844 211.808 176.028C211.317 175.148 210.789 174.234 210.223 173.284C209.94 172.808 209.646 172.323 209.341 171.829C209.329 171.807 209.316 171.784 209.302 171.763L209.214 171.618L195.122 173.504L189.875 174.206L189.561 176.82L189.486 177.468C189.483 177.468 189.483 177.468 189.486 177.471L189.275 179.235V179.238L188.995 181.57L188.971 181.567L181.184 180.558L173.159 179.519L168.848 178.961C167.849 178.831 166.834 178.901 165.862 179.167C164.89 179.433 163.981 179.889 163.187 180.51C162.359 181.152 161.667 181.952 161.152 182.864C160.636 183.776 160.307 184.782 160.184 185.822C160.157 186.033 160.139 186.25 160.13 186.464L156.063 196.099C153.63 201.861 152.08 207.958 151.466 214.182L148.484 223.715L148.909 223.754L155.229 224.341L156.897 224.498L160.573 219.134C160.991 218.522 161.389 217.893 161.76 217.248C162.37 216.196 162.912 215.105 163.383 213.983L171.333 195.069C171.948 195.174 172.556 195.275 173.159 195.37C175.945 195.822 178.62 196.19 181.184 196.475C189.519 197.406 196.737 197.478 203.162 196.689C204.967 196.469 206.711 196.18 208.395 195.822C209.013 195.692 209.622 195.553 210.223 195.403C210.365 195.37 210.504 195.337 210.642 195.301C211.887 194.98 213.032 194.352 213.971 193.474C214.911 192.596 215.615 191.497 216.019 190.277C216.502 188.863 216.571 187.341 216.218 185.889Z" fill="#2F2E41"/>
<path d="M150.598 234.235L146.161 232.109L145.465 231.774L144.354 234.503L136.594 236.211C136.21 236.295 135.863 236.5 135.604 236.795C135.345 237.09 135.187 237.46 135.153 237.852C135.12 238.243 135.212 238.635 135.417 238.97C135.622 239.305 135.929 239.565 136.292 239.714L143.875 242.807L146.282 240.641L145.691 243.548L148.547 244.713L151.677 234.753L150.598 234.235Z" fill="#2F2E41"/>
<path d="M177.868 230.032L178.152 230.749H177.868V230.032Z" fill="#2F2E41"/>
<path d="M176.323 230.902L171.673 232.513L170.944 232.765L172.074 235.486L167.762 242.159C167.548 242.488 167.446 242.878 167.47 243.27C167.493 243.662 167.642 244.036 167.893 244.338C168.144 244.639 168.486 244.853 168.867 244.947C169.249 245.04 169.65 245.01 170.013 244.86L177.578 241.723L177.764 238.491L179.39 240.972L182.239 239.791L177.454 230.512L176.323 230.902Z" fill="#2F2E41"/>
<path d="M215.059 190.252C214.783 190.252 214.511 190.184 214.267 190.056L189.731 177.238L189.448 176.077L188.913 172.405L188.921 172.371L191.254 161.615C191.211 161.523 191.122 161.371 191.021 161.2C189.979 159.435 186.809 154.065 192.859 146.669L203.482 134.287L212.6 133.894L212.704 134.025C215.141 137.085 216.786 140.699 217.49 144.547C218.194 148.394 217.937 152.356 216.74 156.081L215.791 173.223L216.809 176.685C217.404 178.719 217.306 180.894 216.529 182.866L216.763 188.472C216.772 188.702 216.735 188.931 216.653 189.146C216.572 189.361 216.448 189.558 216.289 189.724C216.13 189.89 215.939 190.022 215.727 190.113C215.516 190.204 215.289 190.251 215.059 190.252L215.059 190.252Z" fill="#3F3D56"/>
<path d="M193.776 204.39C194.192 204.144 194.548 203.811 194.821 203.412C195.094 203.014 195.276 202.561 195.354 202.085C195.433 201.608 195.406 201.121 195.276 200.656C195.146 200.191 194.915 199.761 194.6 199.395L200.499 189.252L194.411 189.595L189.742 199.174C189.162 199.744 188.812 200.506 188.756 201.317C188.701 202.127 188.945 202.93 189.442 203.573C189.939 204.216 190.655 204.654 191.454 204.805C192.253 204.955 193.079 204.808 193.776 204.39L193.776 204.39Z" fill="#FFB7B7"/>
<path d="M196.156 196.933L190.705 192.688L200.61 173.497L196.899 149.057C196.715 147.849 196.8 146.616 197.147 145.444C197.494 144.273 198.095 143.192 198.907 142.278C199.719 141.365 200.722 140.642 201.845 140.159C202.967 139.677 204.183 139.448 205.404 139.488C207.61 139.563 209.696 140.51 211.205 142.121C212.714 143.733 213.521 145.876 213.451 148.082L212.534 175.91L196.156 196.933Z" fill="#3F3D56"/>
<path d="M197.634 129.141V120.121C197.632 116.915 198.904 113.84 201.17 111.572C203.435 109.304 206.509 108.028 209.716 108.026C212.922 108.024 215.998 109.296 218.266 111.561C220.535 113.826 221.811 116.9 221.813 120.106V120.121C223.944 124.56 222.611 126.671 221.813 129.141C221.812 129.572 221.641 129.984 221.337 130.288C221.032 130.592 220.62 130.764 220.19 130.764H199.258C198.828 130.764 198.415 130.593 198.111 130.289C197.806 129.984 197.635 129.572 197.634 129.141Z" fill="#2F2E41"/>
<path d="M205.76 130.178C210.757 130.178 214.809 126.127 214.809 121.131C214.809 116.134 210.757 112.083 205.76 112.083C200.762 112.083 196.71 116.134 196.71 121.131C196.71 126.127 200.762 130.178 205.76 130.178Z" fill="#FFB7B7"/>
<path d="M215.23 123.502C215.148 123.49 215.066 123.472 214.984 123.459C213.573 123.209 212.161 122.963 210.754 122.708L210.624 119.519L208.919 122.376C205.03 123.666 201.391 122.937 197.968 121.327C196.839 120.791 195.743 120.187 194.687 119.519C194.975 117.755 195.653 116.078 196.672 114.61C197.692 113.141 199.027 111.92 200.579 111.034C200.709 110.961 200.834 110.896 200.964 110.831C200.964 110.831 200.965 110.831 200.965 110.831C200.966 110.831 200.966 110.83 200.967 110.83C200.967 110.829 200.967 110.829 200.968 110.828C200.968 110.828 200.968 110.827 200.968 110.827C201.188 110.723 201.412 110.624 201.637 110.533C203.394 109.847 205.31 109.673 207.163 110.032C209.015 110.391 210.727 111.268 212.101 112.562C214.863 115.199 216.106 119.553 215.23 123.502Z" fill="#2F2E41"/>
</g>
<defs>
<clipPath id="clip0_10_119">
<rect width="262" height="245" fill="white"/>
</clipPath>
</defs>
</svg>
