<svg viewBox="0 0 188 188" fill="none" xmlns="http://www.w3.org/2000/svg">
<path d="M161.971 135.465L132.261 128.053C132.15 127.885 132.028 127.724 131.883 127.579L122.141 117.834C121.707 117.4 121.155 117.111 120.56 116.997C141.22 107.067 155.516 85.9298 155.516 61.5162C155.516 27.5962 127.92 0 94 0C60.08 0 32.4838 27.5962 32.4838 61.5162C32.4838 85.9298 46.7799 107.067 67.44 116.997C66.8456 117.111 66.2938 117.4 65.8597 117.834L56.1178 127.579C55.9761 127.721 55.8567 127.878 55.7479 128.04L26.0272 135.466C13.4329 138.614 6.49677 146.344 6.49677 157.231V178.458C6.49677 183.719 10.7773 188 16.0389 188H171.961C177.223 188 181.503 183.719 181.503 178.458V157.231C181.503 146.344 174.567 138.614 161.971 135.465ZM125.956 130.266C123.622 134.478 117.896 144.779 112.531 154.426C112.519 154.449 112.492 154.496 112.418 154.514C112.332 154.536 112.27 154.494 112.25 154.481L105.453 149.95C105.449 149.947 105.445 149.944 105.44 149.941L98.78 145.501L119.987 124.294L125.956 130.266ZM90.7516 168.51H97.2484C97.475 168.51 97.6987 168.499 97.9216 168.483L100.207 181.909H87.7932L90.0784 168.483C90.3013 168.499 90.525 168.51 90.7516 168.51ZM100.7 158.968C100.7 160.871 99.1515 162.419 97.2484 162.419H90.7516C88.8485 162.419 87.3002 160.871 87.3002 158.968V154.101L94 149.634L100.7 154.101V158.968ZM38.5745 61.5162C38.5745 30.9542 63.438 6.09071 94 6.09071C124.562 6.09071 149.425 30.9542 149.425 61.5162C149.425 92.0782 124.562 116.942 94 116.942C63.438 116.942 38.5745 92.0782 38.5745 61.5162ZM94 123.032C102.192 123.032 110.013 121.419 117.168 118.499L94 141.667L70.8321 118.499C77.9867 121.419 85.808 123.032 94 123.032ZM68.0134 124.294L89.22 145.501L82.5588 149.942C82.5551 149.944 82.5515 149.946 82.5478 149.949L75.751 154.48C75.7307 154.494 75.6694 154.536 75.5825 154.514C75.5078 154.496 75.4818 154.449 75.4692 154.426C70.1045 144.779 64.3788 134.478 62.0441 130.266L68.0134 124.294ZM12.5875 178.458V157.231C12.5875 149.184 17.6062 143.849 27.504 141.374L57.1341 133.971C58.8899 137.142 62.5309 143.693 70.1451 157.386C70.9938 158.912 72.4527 160.023 74.1471 160.433C74.6328 160.551 75.1273 160.609 75.6207 160.609C76.8567 160.609 78.0825 160.245 79.1281 159.549L81.2091 158.162V158.968C81.2091 161.754 82.4098 164.265 84.3206 166.011L81.6151 181.909H41.8229V165.464C41.8229 163.782 40.4598 162.419 38.7775 162.419C37.0953 162.419 35.7322 163.782 35.7322 165.464V181.909H16.0389C14.1357 181.909 12.5875 180.361 12.5875 178.458ZM175.413 178.458C175.413 180.361 173.864 181.909 171.961 181.909H152.268V165.464C152.268 163.782 150.905 162.419 149.222 162.419C147.54 162.419 146.177 163.782 146.177 165.464V181.909H106.385L103.679 166.011C105.589 164.265 106.79 161.754 106.79 158.968V158.161L108.871 159.549C109.917 160.245 111.143 160.608 112.379 160.608C112.871 160.608 113.367 160.55 113.852 160.433C115.547 160.022 117.006 158.912 117.854 157.386C125.461 143.707 129.102 137.155 130.86 133.981L160.495 141.374C170.394 143.849 175.413 149.183 175.413 157.231V178.458Z" fill="#F7F9F9"/>
<path d="M142.523 61.5162C142.523 34.7605 120.756 12.9935 94 12.9935C67.2443 12.9935 45.4773 34.7605 45.4773 61.5162C45.4773 88.2719 67.2443 110.039 94 110.039C120.756 110.039 142.523 88.2719 142.523 61.5162ZM51.6785 64.5616H58.2678C59.95 64.5616 61.3131 63.1985 61.3131 61.5162C61.3131 59.834 59.95 58.4709 58.2678 58.4709H51.6785C53.1731 37.4961 69.9802 20.6893 90.9546 19.1947V25.784C90.9546 27.4663 92.3177 28.8294 94 28.8294C95.6822 28.8294 97.0453 27.4663 97.0453 25.784V19.1947C118.022 20.6898 134.829 37.4989 136.322 58.4757C136.291 58.4749 136.26 58.4713 136.229 58.4713H129.732C128.05 58.4713 126.687 59.8344 126.687 61.5166C126.687 63.1989 128.05 64.562 129.732 64.562H136.229C136.26 64.562 136.291 64.5583 136.322 64.5575C134.829 85.5343 118.022 102.343 97.0453 103.839V97.2484C97.0453 95.5661 95.6822 94.203 94 94.203C92.3177 94.203 90.9546 95.5661 90.9546 97.2484V103.838C69.9798 102.343 53.1731 85.5364 51.6785 64.5616Z" fill="#F7F9F9"/>
<path d="M89.7613 70.0619C91.0391 70.6982 92.4781 71.0583 94 71.0583C98.1969 71.0583 101.767 68.3337 103.041 64.5616H116.739C118.421 64.5616 119.784 63.1985 119.784 61.5162C119.784 59.8339 118.421 58.4708 116.739 58.4708H103.041C102.902 58.0599 102.737 57.6616 102.546 57.2775L118.893 40.9308C120.082 39.7411 120.082 37.8132 118.893 36.6239C117.703 35.435 115.775 35.435 114.586 36.6239L98.2391 52.9705C96.9613 52.3342 95.5223 51.9741 94.0004 51.9741C89.8035 51.9741 86.2335 54.6987 84.9594 58.4708H81.0065C79.3242 58.4708 77.9611 59.8339 77.9611 61.5162C77.9611 63.1985 79.3242 64.5616 81.0065 64.5616H84.9589C85.0978 64.9725 85.2631 65.3708 85.4539 65.7549L80.1306 71.0782C78.9413 72.2679 78.9413 74.1958 80.1306 75.3852C80.7255 75.9796 81.5051 76.2768 82.2843 76.2768C83.0635 76.2768 83.8431 75.9796 84.438 75.3852L89.7613 70.0619ZM94 58.0648C95.9031 58.0648 97.4514 59.6131 97.4514 61.5162C97.4514 63.4193 95.9031 64.9676 94 64.9676C92.0969 64.9676 90.5486 63.4193 90.5486 61.5162C90.5486 59.6131 92.0969 58.0648 94 58.0648Z" fill="#F7F9F9"/>
</svg>
