<svg id="visual" viewBox="0 0 900 600" xmlns="http://www.w3.org/2000/svg" xmlns:xlink="http://www.w3.org/1999/xlink" version="1.1"><path d="M0 476L21.5 477.3C43 478.7 86 481.3 128.8 468.2C171.7 455 214.3 426 257.2 430.3C300 434.7 343 472.3 385.8 492.7C428.7 513 471.3 516 514.2 506C557 496 600 473 642.8 466.7C685.7 460.3 728.3 470.7 771.2 461.2C814 451.7 857 422.3 878.5 407.7L900 393L900 601L878.5 601C857 601 814 601 771.2 601C728.3 601 685.7 601 642.8 601C600 601 557 601 514.2 601C471.3 601 428.7 601 385.8 601C343 601 300 601 257.2 601C214.3 601 171.7 601 128.8 601C86 601 43 601 21.5 601L0 601Z" fill="#368F8B" stroke-linecap="round" stroke-linejoin="miter"></path></svg>