<svg id="visual" viewBox="0 0 900 600"  xmlns="http://www.w3.org/2000/svg" xmlns:xlink="http://www.w3.org/1999/xlink" version="1.1"><path d="M0 458L9.3 456C18.7 454 37.3 450 56.2 451.7C75 453.3 94 460.7 112.8 467C131.7 473.3 150.3 478.7 169 474C187.7 469.3 206.3 454.7 225 456.5C243.7 458.3 262.3 476.7 281.2 481.2C300 485.7 319 476.3 337.8 470.8C356.7 465.3 375.3 463.7 394 464.5C412.7 465.3 431.3 468.7 450 477.3C468.7 486 487.3 500 506.2 500.3C525 500.7 544 487.3 562.8 477.5C581.7 467.7 600.3 461.3 619 467C637.7 472.7 656.3 490.3 675 490.8C693.7 491.3 712.3 474.7 731.2 465.3C750 456 769 454 787.8 464.7C806.7 475.3 825.3 498.7 844 505C862.7 511.3 881.3 500.7 890.7 495.3L900 490L900 601L890.7 601C881.3 601 862.7 601 844 601C825.3 601 806.7 601 787.8 601C769 601 750 601 731.2 601C712.3 601 693.7 601 675 601C656.3 601 637.7 601 619 601C600.3 601 581.7 601 562.8 601C544 601 525 601 506.2 601C487.3 601 468.7 601 450 601C431.3 601 412.7 601 394 601C375.3 601 356.7 601 337.8 601C319 601 300 601 281.2 601C262.3 601 243.7 601 225 601C206.3 601 187.7 601 169 601C150.3 601 131.7 601 112.8 601C94 601 75 601 56.2 601C37.3 601 18.7 601 9.3 601L0 601Z" fill="#246a73"></path><path d="M0 509L9.3 512.3C18.7 515.7 37.3 522.3 56.2 520.5C75 518.7 94 508.3 112.8 508.8C131.7 509.3 150.3 520.7 169 526.2C187.7 531.7 206.3 531.3 225 529.3C243.7 527.3 262.3 523.7 281.2 519.5C300 515.3 319 510.7 337.8 509.2C356.7 507.7 375.3 509.3 394 506.5C412.7 503.7 431.3 496.3 450 491C468.7 485.7 487.3 482.3 506.2 479.8C525 477.3 544 475.7 562.8 485.5C581.7 495.3 600.3 516.7 619 520C637.7 523.3 656.3 508.7 675 508.2C693.7 507.7 712.3 521.3 731.2 529.2C750 537 769 539 787.8 539.5C806.7 540 825.3 539 844 532.7C862.7 526.3 881.3 514.7 890.7 508.8L900 503L900 601L890.7 601C881.3 601 862.7 601 844 601C825.3 601 806.7 601 787.8 601C769 601 750 601 731.2 601C712.3 601 693.7 601 675 601C656.3 601 637.7 601 619 601C600.3 601 581.7 601 562.8 601C544 601 525 601 506.2 601C487.3 601 468.7 601 450 601C431.3 601 412.7 601 394 601C375.3 601 356.7 601 337.8 601C319 601 300 601 281.2 601C262.3 601 243.7 601 225 601C206.3 601 187.7 601 169 601C150.3 601 131.7 601 112.8 601C94 601 75 601 56.2 601C37.3 601 18.7 601 9.3 601L0 601Z" fill="#28767c"></path><path d="M0 527L9.3 533C18.7 539 37.3 551 56.2 548.2C75 545.3 94 527.7 112.8 518.2C131.7 508.7 150.3 507.3 169 512.5C187.7 517.7 206.3 529.3 225 539.2C243.7 549 262.3 557 281.2 557.3C300 557.7 319 550.3 337.8 547.7C356.7 545 375.3 547 394 547.2C412.7 547.3 431.3 545.7 450 540.2C468.7 534.7 487.3 525.3 506.2 520.7C525 516 544 516 562.8 519.3C581.7 522.7 600.3 529.3 619 528.3C637.7 527.3 656.3 518.7 675 519.8C693.7 521 712.3 532 731.2 535.2C750 538.3 769 533.7 787.8 536C806.7 538.3 825.3 547.7 844 552C862.7 556.3 881.3 555.7 890.7 555.3L900 555L900 601L890.7 601C881.3 601 862.7 601 844 601C825.3 601 806.7 601 787.8 601C769 601 750 601 731.2 601C712.3 601 693.7 601 675 601C656.3 601 637.7 601 619 601C600.3 601 581.7 601 562.8 601C544 601 525 601 506.2 601C487.3 601 468.7 601 450 601C431.3 601 412.7 601 394 601C375.3 601 356.7 601 337.8 601C319 601 300 601 281.2 601C262.3 601 243.7 601 225 601C206.3 601 187.7 601 169 601C150.3 601 131.7 601 112.8 601C94 601 75 601 56.2 601C37.3 601 18.7 601 9.3 601L0 601Z" fill="#2e8284"></path><path d="M0 561L9.3 558.5C18.7 556 37.3 551 56.2 551.3C75 551.7 94 557.3 112.8 558.2C131.7 559 150.3 555 169 555.3C187.7 555.7 206.3 560.3 225 566.3C243.7 572.3 262.3 579.7 281.2 580.8C300 582 319 577 337.8 576.5C356.7 576 375.3 580 394 576C412.7 572 431.3 560 450 558.8C468.7 557.7 487.3 567.3 506.2 569.3C525 571.3 544 565.7 562.8 562.3C581.7 559 600.3 558 619 554.5C637.7 551 656.3 545 675 550C693.7 555 712.3 571 731.2 574.5C750 578 769 569 787.8 569.2C806.7 569.3 825.3 578.7 844 576.5C862.7 574.3 881.3 560.7 890.7 553.8L900 547L900 601L890.7 601C881.3 601 862.7 601 844 601C825.3 601 806.7 601 787.8 601C769 601 750 601 731.2 601C712.3 601 693.7 601 675 601C656.3 601 637.7 601 619 601C600.3 601 581.7 601 562.8 601C544 601 525 601 506.2 601C487.3 601 468.7 601 450 601C431.3 601 412.7 601 394 601C375.3 601 356.7 601 337.8 601C319 601 300 601 281.2 601C262.3 601 243.7 601 225 601C206.3 601 187.7 601 169 601C150.3 601 131.7 601 112.8 601C94 601 75 601 56.2 601C37.3 601 18.7 601 9.3 601L0 601Z" fill="#368f8b"></path></svg>